<svg width="30" height="30" viewBox="0 0 30 30" fill="none" xmlns="http://www.w3.org/2000/svg">
<g id="Group">
<path id="Vector" fill-rule="evenodd" clip-rule="evenodd" d="M8.95331 0.421343C10.5173 0.349343 11.016 0.333344 15 0.333344C18.984 0.333344 19.4826 0.350677 21.0453 0.421343C22.608 0.49201 23.6746 0.741344 24.608 1.10268C25.5853 1.47201 26.472 2.04934 27.2053 2.79601C27.952 3.52801 28.528 4.41334 28.896 5.39201C29.2586 6.32534 29.5066 7.39201 29.5786 8.95201C29.6506 10.5187 29.6666 11.0173 29.6666 15C29.6666 18.984 29.6493 19.4827 29.5786 21.0467C29.508 22.6067 29.2586 23.6733 28.896 24.6067C28.528 25.5855 27.951 26.4723 27.2053 27.2053C26.472 27.952 25.5853 28.528 24.608 28.896C23.6746 29.2587 22.608 29.5067 21.048 29.5787C19.4826 29.6507 18.984 29.6667 15 29.6667C11.016 29.6667 10.5173 29.6493 8.95331 29.5787C7.39331 29.508 6.32665 29.2587 5.39331 28.896C4.41454 28.528 3.52774 27.951 2.79465 27.2053C2.04849 26.4729 1.47107 25.5865 1.10265 24.608C0.741313 23.6747 0.493313 22.608 0.421313 21.048C0.349313 19.4813 0.333313 18.9827 0.333313 15C0.333313 11.016 0.350646 10.5173 0.421313 8.95468C0.49198 7.39201 0.741313 6.32534 1.10265 5.39201C1.47161 4.41345 2.04947 3.52709 2.79598 2.79468C3.52803 2.04868 4.41394 1.47127 5.39198 1.10268C6.32531 0.741344 7.39198 0.493343 8.95198 0.421343H8.95331ZM20.9266 3.06134C19.38 2.99068 18.916 2.97601 15 2.97601C11.084 2.97601 10.62 2.99068 9.07331 3.06134C7.64265 3.12668 6.86665 3.36534 6.34931 3.56668C5.66531 3.83334 5.17598 4.14934 4.66265 4.66268C4.17604 5.13608 3.80155 5.71239 3.56665 6.34934C3.36531 6.86668 3.12665 7.64268 3.06131 9.07334C2.99065 10.62 2.97598 11.084 2.97598 15C2.97598 18.916 2.99065 19.38 3.06131 20.9267C3.12665 22.3573 3.36531 23.1333 3.56665 23.6507C3.80131 24.2867 4.17598 24.864 4.66265 25.3373C5.13598 25.824 5.71331 26.1987 6.34931 26.4333C6.86665 26.6347 7.64265 26.8733 9.07331 26.9387C10.62 27.0093 11.0826 27.024 15 27.024C18.9173 27.024 19.38 27.0093 20.9266 26.9387C22.3573 26.8733 23.1333 26.6347 23.6506 26.4333C24.3346 26.1667 24.824 25.8507 25.3373 25.3373C25.824 24.864 26.1986 24.2867 26.4333 23.6507C26.6346 23.1333 26.8733 22.3573 26.9386 20.9267C27.0093 19.38 27.024 18.916 27.024 15C27.024 11.084 27.0093 10.62 26.9386 9.07334C26.8733 7.64268 26.6346 6.86668 26.4333 6.34934C26.1666 5.66534 25.8506 5.17601 25.3373 4.66268C24.8639 4.17611 24.2876 3.80162 23.6506 3.56668C23.1333 3.36534 22.3573 3.12668 20.9266 3.06134ZM13.1266 19.5213C14.1729 19.9569 15.3378 20.0156 16.4226 19.6876C17.5073 19.3596 18.4445 18.6652 19.0741 17.723C19.7038 16.7808 19.9867 15.6492 19.8747 14.5215C19.7627 13.3938 19.2627 12.34 18.46 11.54C17.9483 11.0286 17.3296 10.6371 16.6484 10.3935C15.9673 10.15 15.2406 10.0605 14.5206 10.1315C13.8007 10.2025 13.1055 10.4322 12.4851 10.8042C11.8646 11.1761 11.3343 11.681 10.9324 12.2825C10.5305 12.884 10.2669 13.5671 10.1607 14.2826C10.0544 14.9982 10.1082 15.7284 10.318 16.4207C10.5279 17.113 10.8886 17.7502 11.3743 18.2863C11.8599 18.8225 12.4584 19.2443 13.1266 19.5213ZM9.66931 9.66934C10.3693 8.96931 11.2004 8.41401 12.115 8.03516C13.0297 7.6563 14.01 7.46131 15 7.46131C15.99 7.46131 16.9703 7.6563 17.8849 8.03516C18.7996 8.41401 19.6306 8.96931 20.3306 9.66934C21.0307 10.3694 21.586 11.2004 21.9648 12.1151C22.3437 13.0297 22.5387 14.01 22.5387 15C22.5387 15.99 22.3437 16.9703 21.9648 17.8849C21.586 18.7996 21.0307 19.6306 20.3306 20.3307C18.9169 21.7445 16.9994 22.5387 15 22.5387C13.0006 22.5387 11.0831 21.7445 9.66931 20.3307C8.25553 18.9169 7.46128 16.9994 7.46128 15C7.46128 13.0006 8.25553 11.0831 9.66931 9.66934ZM24.2106 8.58401C24.3841 8.42037 24.523 8.22359 24.6191 8.00531C24.7151 7.78703 24.7664 7.5517 24.7699 7.31325C24.7733 7.0748 24.7289 6.83807 24.6393 6.61709C24.5496 6.39611 24.4166 6.19536 24.2479 6.02673C24.0793 5.8581 23.8786 5.72502 23.6576 5.63537C23.4366 5.54571 23.1999 5.50131 22.9614 5.50479C22.723 5.50826 22.4876 5.55955 22.2693 5.65561C22.0511 5.75166 21.8543 5.89054 21.6906 6.06401C21.3724 6.40138 21.1982 6.84951 21.2049 7.31325C21.2117 7.777 21.3989 8.21985 21.7269 8.5478C22.0548 8.87575 22.4977 9.06298 22.9614 9.06974C23.4252 9.0765 23.8733 8.90226 24.2106 8.58401Z" fill="#F8F8F8"/>
</g>
</svg>
