<svg width="31" height="26" viewBox="0 0 31 26" fill="none" xmlns="http://www.w3.org/2000/svg">
<g id="Group">
<path id="Vector" d="M30.524 3.58266C29.4107 4.07599 28.2147 4.40932 26.9573 4.55999C28.2547 3.78371 29.2253 2.56195 29.688 1.12266C28.4691 1.84664 27.1351 2.35625 25.744 2.62932C24.8085 1.63048 23.5694 0.968426 22.2191 0.745956C20.8688 0.523487 19.4828 0.753046 18.2763 1.39899C17.0698 2.04494 16.1104 3.07114 15.5469 4.31826C14.9834 5.56538 14.8474 6.96366 15.16 8.29599C12.6902 8.17199 10.2742 7.53006 8.06856 6.41186C5.86296 5.29367 3.91712 3.72421 2.35733 1.80532C1.824 2.72532 1.51733 3.79199 1.51733 4.92799C1.51673 5.95065 1.76857 6.95765 2.2505 7.85963C2.73243 8.76162 3.42954 9.53071 4.28 10.0987C3.2937 10.0673 2.32916 9.80077 1.46666 9.32132V9.40132C1.46656 10.8356 1.96271 12.2258 2.87091 13.336C3.77911 14.4461 5.04342 15.2079 6.44933 15.492C5.53437 15.7396 4.57511 15.7761 3.644 15.5987C4.04066 16.8328 4.81332 17.912 5.85382 18.6852C6.89431 19.4584 8.15055 19.8869 9.44666 19.9107C7.24644 21.6379 4.52918 22.5748 1.732 22.5707C1.2365 22.5708 0.74143 22.5419 0.249329 22.484C3.08863 24.3096 6.39378 25.2784 9.76933 25.2747C21.196 25.2747 27.4427 15.8107 27.4427 7.60266C27.4427 7.33599 27.436 7.06666 27.424 6.79999C28.6391 5.92129 29.6879 4.83318 30.5213 3.58666L30.524 3.58266Z" fill="#F8F8F8"/>
</g>
</svg>
